<svg fill="#000000" xmlns="http://www.w3.org/2000/svg"  viewBox="0 0 50 50" width="50px" height="50px"><path d="M42.745,41.55c-6.429,4.988-15.249,8.474-17.707,4.09c-1.339,3.618-9.744,1.768-17.571-4.125c-0.366,0.139-0.52,0.221-0.838,0.296c0,0,6.734,8.237,18.447,8.196c11.934-0.044,18.296-8.111,18.296-8.111C43.158,41.768,43.006,41.692,42.745,41.55z"/><path d="M7.305,37.353c-0.074,0.188-0.028,0.401,0.116,0.541c0.146,0.142,0.358,0.181,0.545,0.102c0.223-0.095,0.524-0.147,0.85-0.147c0.911,0,1.825,0.366,2.328,0.934c1.174,1.322,5.481,4.931,11.234,5.746c0.023,0.003,0.047,0.005,0.07,0.005c0.116,0,0.229-0.04,0.319-0.115c0.109-0.091,0.174-0.223,0.181-0.363c0.013-0.313,0.02-0.62,0.016-0.762c-0.006-0.197-0.128-0.373-0.311-0.448c-3.633-1.488-6.539-6.079-4.909-10.267c0.748-1.716,4.899-12.688,6.896-17.961L25,13.663l0.36,0.953c1.996,5.272,6.147,16.245,6.888,17.942c1.643,4.219-1.225,8.802-4.825,10.276c-0.188,0.077-0.311,0.337-0.311,0.54c0.001,0.326,0.001,0.412,0.017,0.677c0.008,0.14,0.074,0.27,0.182,0.358c0.109,0.088,0.249,0.127,0.388,0.108c5.689-0.806,9.983-4.415,11.158-5.737c0.503-0.567,1.417-0.934,2.328-0.934c0.325,0,0.627,0.053,0.85,0.147c0.186,0.079,0.399,0.04,0.545-0.102c0.145-0.14,0.19-0.354,0.116-0.541c-1.47-3.74-0.297-6.752,0.267-8.199c0.066-0.171,0.034-0.365-0.084-0.505c-0.119-0.14-0.307-0.204-0.484-0.166c-5.607,1.171-6.677-1.421-8.299-5.339c-0.209-0.507-0.426-1.03-0.65-1.539L25.468,0.33c-0.146-0.391-0.789-0.391-0.936,0l-7.967,21.249c-0.234,0.534-0.451,1.058-0.66,1.564c-1.622,3.919-2.689,6.511-8.299,5.339c-0.179-0.037-0.365,0.026-0.484,0.166c-0.118,0.14-0.15,0.334-0.084,0.505C7.602,30.601,8.774,33.612,7.305,37.353z"/></svg>